<svg xmlns="http://www.w3.org/2000/svg" viewBox="0 0 1200 630" width="1200" height="630">
  <defs>
    <style>
      @import url('https://fonts.googleapis.com/css2?family=Outfit:wght@900&amp;display=swap');
    </style>
    <linearGradient id="g" x1="0%" y1="0%" x2="100%" y2="100%">
      <stop offset="0%" stop-color="#8B5A2B"/>
      <stop offset="50%" stop-color="#B08D57"/>
      <stop offset="100%" stop-color="#D4A574"/>
    </linearGradient>
    <radialGradient id="ring-outer" cx="35%" cy="35%" r="70%">
      <stop offset="0.5" stop-color="#5C3317"/>
      <stop offset="1" stop-color="#2D1809"/>
    </radialGradient>
    <radialGradient id="ring-inner" cx="35%" cy="35%" r="70%">
      <stop offset="0.5" stop-color="#8B5A2B"/>
      <stop offset="1" stop-color="#5C3317"/>
    </radialGradient>
    <linearGradient id="arrow-base" x1="0%" y1="0%" x2="100%" y2="100%">
      <stop offset="0%" stop-color="#6B4423"/>
      <stop offset="100%" stop-color="#8B5A2B"/>
    </linearGradient>
    <linearGradient id="arrow-bright" x1="0%" y1="0%" x2="100%" y2="100%">
      <stop offset="0%" stop-color="#B08D57"/>
      <stop offset="50%" stop-color="#D4A574"/>
      <stop offset="100%" stop-color="#E8C9A0"/>
    </linearGradient>
    <linearGradient id="diamond-grad" x1="0%" y1="0%" x2="50%" y2="100%">
      <stop offset="0%" stop-color="#F5E6D3"/>
      <stop offset="100%" stop-color="#D4A574"/>
    </linearGradient>
    <radialGradient id="ambient" cx="50%" cy="50%" r="50%">
      <stop offset="0%" stop-color="#B08D57" stop-opacity="0.04"/>
      <stop offset="70%" stop-color="#8B5A2B" stop-opacity="0.015"/>
      <stop offset="100%" stop-color="#08060E" stop-opacity="0"/>
    </radialGradient>
    <filter id="gl">
      <feGaussianBlur stdDeviation="4" result="b"/>
      <feMerge><feMergeNode in="b"/><feMergeNode in="SourceGraphic"/></feMerge>
    </filter>
  </defs>

  <rect x="0" y="0" width="1200" height="630" fill="#08060E"/>
  <ellipse cx="230" cy="315" rx="520" ry="440" fill="url(#ambient)"/>

  <!-- Rounded square container -->
  <rect x="60" y="175" width="280" height="280" rx="50"
        fill="none" stroke="url(#g)" stroke-width="5" filter="url(#gl)"/>

  <!-- Scale 0.6322 → 232px. Center (341, 853) → (200, 315) -->
  <g transform="translate(-15.58, -224.27) scale(0.6322)" filter="url(#gl)">
    <path fill="url(#ring-outer)" d="M453.265,740.547c-62.037-62.037-162.619-62.037-224.656,0c-62.037,62.037-62.037,162.619,0,224.656c62.037,62.037,162.619,62.037,224.656,0C515.302,903.166,515.302,802.584,453.265,740.547z M254.321,939.491c-47.837-47.837-47.837-125.396,0-173.233c47.837-47.837,125.396-47.837,173.233,0c47.837,47.837,47.837,125.396,0,173.233C379.716,987.328,302.157,987.328,254.321,939.491z"/>
    <path fill="url(#ring-inner)" d="M427.553,766.258c-47.837-47.837-125.396-47.837-173.233,0c-47.837,47.837-47.837,125.396,0,173.233c47.837,47.837,125.396,47.837,173.233,0C475.39,891.654,475.39,814.095,427.553,766.258z M279.447,914.365c-33.96-33.96-33.96-89.02,0-122.981s89.021-33.96,122.981,0c33.96,33.96,33.96,89.021,0,122.981C368.467,948.325,313.407,948.325,279.447,914.365z"/>

    <path fill="url(#arrow-base)" d="M258.059,669.762c-21.464,9.71-41.576,23.373-59.219,41.016c-17.643,17.643-31.306,37.755-41.016,59.219l171.474,71.239L258.059,669.762z"/>
    <path fill="url(#arrow-bright)" opacity="0.85" d="M161.512,767.765c9.239-17.789,21.14-34.017,35.469-48.346c14.33-14.33,30.557-26.23,48.346-35.469l59.568,143.383L161.512,767.765z"/>

    <path fill="url(#arrow-base)" d="M524.049,769.997c-9.71-21.464-23.373-41.576-41.016-59.219c-17.643-17.643-37.755-31.306-59.219-41.016l-71.239,171.473L524.049,769.997z"/>
    <path fill="url(#arrow-bright)" opacity="0.85" d="M428.984,683.383c17.286,8.978,33.054,20.542,46.978,34.466c13.924,13.924,25.488,29.692,34.466,46.978l-139.327,57.884L428.984,683.383z"/>

    <path fill="url(#arrow-base)" d="M157.824,935.753c9.71,21.464,23.373,41.576,41.016,59.219c17.643,17.643,37.755,31.306,59.219,41.016l71.239-171.474L157.824,935.753z"/>
    <path fill="url(#arrow-bright)" opacity="0.85" d="M206.981,995.331c-14.33-14.33-26.23-30.557-35.469-48.346l143.383-59.568l-59.568,143.383C237.537,1021.56,221.311,1009.66,206.981,995.331z"/>

    <path fill="url(#arrow-base)" d="M524.049,935.753l-171.474-71.239l71.239,171.474c21.464-9.71,41.576-23.373,59.219-41.016C500.676,977.328,514.339,957.216,524.049,935.753z"/>
    <path fill="url(#arrow-bright)" opacity="0.85" d="M375.478,877.416l143.383,59.568c-9.239,17.788-21.139,34.015-35.47,48.345c-14.33,14.33-30.556,26.23-48.345,35.469L375.478,877.416z"/>

    <!-- FACETED DIAMOND at center -->
    <polygon points="341,829 365,853 341,877 317,853" fill="url(#diamond-grad)" opacity="0.98"/>
    <line x1="341" y1="829" x2="341" y2="877" stroke="#F5E6D3" stroke-width="2.5" opacity="0.7"/>
    <line x1="317" y1="853" x2="365" y2="853" stroke="#F5E6D3" stroke-width="2.5" opacity="0.7"/>
  </g>

  <text x="390" y="355" font-family="Outfit, sans-serif" font-weight="900" font-size="96" letter-spacing="-3" fill="#f0f0f0">Crucible<tspan fill="url(#g)">Forge</tspan></text>
  <text x="390" y="400" font-family="Outfit, sans-serif" font-weight="900" font-size="22" letter-spacing="4" fill="#B08D57" opacity="0.7">SPEC · PLANNING · PRESSURE</text>
</svg>
